<?xml version="1.0" encoding="UTF-8"?> <svg xmlns="http://www.w3.org/2000/svg" height="512pt" viewBox="0 0 512 512" width="512pt"><path d="m109.019531 464.800781-.039062-30 25.964843-.039062c4.992188-.003907 9.054688-4.074219 9.054688-9.066407v-62.894531h30v62.894531c0 21.511719-17.5 39.039063-39.011719 39.070313zm0 0" fill="#b0e1ff"></path><path d="m241 362.800781h30v40h-30zm0 0" fill="#b0e1ff"></path><path d="m256 362.800781h15v40h-15zm0 0" fill="#0db2ff"></path><path d="m402.980469 464.800781-25.964844-.039062c-21.515625-.027344-39.015625-17.554688-39.015625-39.066407v-62.894531h30v62.894531c0 4.992188 4.0625 9.0625 9.054688 9.070313l25.964843.035156zm0 0" fill="#0db2ff"></path><path d="m512 239.429688c0 76.46875-61.769531 138.679687-137.691406 138.679687l-118.308594-.140625-139.03125-.167969-.417969-.019531c-65.351562-3.761719-116.550781-58.332031-116.550781-124.222656 0-63.617188 47.179688-116.339844 108.941406-123.679688 4.519532-72.378906 64.429688-129.878906 137.410156-129.878906 3.238282 0 6.457032.109375 9.648438.339844 57.75 4.03125 106.898438 44.011718 122.738281 100.480468 73.921875 2.398438 133.261719 63.660157 133.261719 138.609376zm0 0" fill="#daf0fa"></path><path d="m62 387.800781c-34.1875 0-62 27.8125-62 62s27.8125 62 62 62 62-27.8125 62-62-27.8125-62-62-62zm0 0" fill="#ffda2f"></path><path d="m318 449.800781c0 34.1875-27.808594 62-62 62s-62-27.8125-62-62c0-34.191406 27.808594-62 62-62s62 27.808594 62 62zm0 0" fill="#ffda2f"></path><path d="m450 387.800781c-34.1875 0-62 27.8125-62 62s27.8125 62 62 62 62-27.8125 62-62-27.8125-62-62-62zm0 0" fill="#ffbc1d"></path><path d="m318 449.800781c0 34.1875-27.808594 62-62 62v-124c34.191406 0 62 27.808594 62 62zm0 0" fill="#ffbc1d"></path><path d="m512 239.429688c0 76.46875-61.769531 138.679687-137.691406 138.679687l-118.308594-.140625v-377.628906c57.75 4.03125 106.898438 44.011718 122.738281 100.480468 73.921875 2.398438 133.261719 63.660157 133.261719 138.609376zm0 0" fill="#b0e1ff"></path></svg> 