<?xml version="1.0" encoding="UTF-8"?> <svg xmlns="http://www.w3.org/2000/svg" id="Capa_1" height="512" viewBox="0 0 511.977 511.977" width="512"><g><path d="m451.366 258.719-60.695-60.696c-10.925-10.925-25.494-16.941-41.025-16.941s-30.101 6.017-41.025 16.941l-5.454 5.454c-22.622 22.621-22.622 59.429 0 82.05l60.696 60.696c11.311 11.311 26.168 16.966 41.025 16.966s29.714-5.655 41.025-16.966l5.453-5.453c10.925-10.925 16.941-25.494 16.941-41.025 0-15.532-6.017-30.102-16.941-41.026z" fill="#ffd422"></path><path d="m308.62 198.023-2.727 2.727 142.746 142.746 2.726-2.726c10.925-10.925 16.941-25.494 16.941-41.025s-6.017-30.101-16.941-41.025l-60.695-60.696c-10.925-10.925-25.494-16.941-41.025-16.941-15.531-.002-30.101 6.015-41.025 16.94z" fill="#fdbf00"></path><path d="m154.571 33.806c-8.284 0-15 6.716-15 15v405.201c0 8.284 6.716 15 15 15s15-6.716 15-15v-405.201c0-8.284-6.716-15-15-15z" fill="#87a0af"></path><g><path d="m270.331 179.566c-3.839 0-7.678-1.464-10.606-4.394l-109.413-109.412c-5.858-5.858-5.858-15.355 0-21.213 5.857-5.858 15.355-5.858 21.213 0l109.413 109.413c5.858 5.858 5.858 15.355 0 21.213-2.929 2.929-6.768 4.393-10.607 4.393z" fill="#607882"></path></g><path d="m169.571 454.007v-405.201c0-8.284-6.716-15-15-15v435.201c8.284 0 15-6.716 15-15z" fill="#607882"></path><path d="m191.76 404.884h-74.38c-44.21 0-80.179 35.968-80.179 80.179 0 14.84 12.073 26.914 26.914 26.914h180.911c14.84 0 26.914-12.073 26.914-26.914 0-44.211-35.969-80.179-80.18-80.179z" fill="#5aa9e6"></path><path d="m191.76 404.884h-37.19v107.093h90.456c14.84 0 26.914-12.073 26.914-26.914 0-44.211-35.969-80.179-80.18-80.179z" fill="#2189db"></path><path d="m189.098 14.278c-19.038-19.038-50.016-19.038-69.055 0-19.038 19.039-19.038 50.016 0 69.055 9.52 9.52 22.023 14.279 34.527 14.279s25.008-4.76 34.528-14.279c19.038-19.039 19.038-50.016 0-69.055z" fill="#5aa9e6"></path><path d="m154.571 0v97.612c12.504 0 25.008-4.76 34.528-14.279 19.038-19.039 19.038-50.016 0-69.055-9.52-9.519-22.024-14.278-34.528-14.278z" fill="#2189db"></path><path d="m467.348 199.061-33.755-33.755c-20.157-20.158-47.053-31.259-75.734-31.259-8.395 0-16.635.958-24.6 2.809l-31.543-31.544c-19.257-19.256-50.589-19.255-69.845 0l-17.659 17.659c-19.256 19.256-19.256 50.588 0 69.845l29.338 29.338c-10.789 36.458-1.823 77.571 26.9 106.294l33.755 33.755c4.951 4.952 11.455 7.427 17.959 7.427s13.008-2.476 17.959-7.427l127.225-127.225c9.902-9.902 9.902-26.015 0-35.917z" fill="#5aa9e6"></path><path d="m333.258 136.856-31.543-31.544c-19.257-19.256-50.589-19.255-69.845 0l-10.707 10.707 182.572 182.572 63.612-63.612c9.903-9.902 9.903-26.016 0-35.918l-33.755-33.755c-20.157-20.158-47.053-31.259-75.734-31.259-8.395 0-16.635.958-24.6 2.809z" fill="#2189db"></path></g></svg> 